<!--?xml version="1.0" encoding="utf-8"?-->
<!-- Svg Vector Icons : http://www.onlinewebfonts.com/icon -->

<svg version="1.1" xmlns="http://www.w3.org/2000/svg" xmlns:xlink="http://www.w3.org/1999/xlink" x="0px" y="0px" viewBox="0 0 256 256" enable-background="new 0 0 256 256" xml:space="preserve">
<metadata> Svg Vector Icons : http://www.onlinewebfonts.com/icon </metadata>
<g><g><path fill="#ff8b9e" data-title="Layer 0" xs="0" d="M102.7,77.4c-4.6,0-8.4,15.1-8.4,33.7v33.7c0,18.6,3.8,33.7,8.4,33.7s8.4-15.1,8.4-33.7v-33.7C111.1,92.5,107.4,77.4,102.7,77.4z"/><path fill="#ff8b9e" data-title="Layer 1" xs="1" d="M158.9,77.4c-4.6,0-8.4,15.1-8.4,33.7v33.7c0,18.6,3.8,33.7,8.4,33.7s8.4-15.1,8.4-33.7v-33.7C167.3,92.5,163.6,77.4,158.9,77.4z"/><path fill="#ff8b9e" data-title="Layer 2" xs="2" d="M128,10C62.9,10,10,62.9,10,128c0,65.1,52.9,118,118,118c65.1,0,118-52.9,118-118C246,62.9,193.1,10,128,10z M128,234.8c-58.9,0-106.8-47.9-106.8-106.8C21.2,69.1,69.1,21.2,128,21.2c58.9,0,106.8,47.9,106.8,106.8C234.8,186.9,186.9,234.8,128,234.8z"/></g></g>
</svg>